<svg xmlns="http://www.w3.org/2000/svg" xmlns:xlink="http://www.w3.org/1999/xlink" width="1400" zoomAndPan="magnify" viewBox="0 0 1050 262.499992" height="350" preserveAspectRatio="xMidYMid meet" version="1.0"><defs><g/><clipPath id="af09aabec7"><rect x="0" width="937" y="0" height="112"/></clipPath></defs><g transform="matrix(1, 0, 0, 1, 66, 75)"><g clip-path="url(#af09aabec7)"><g fill="#ff0000" fill-opacity="1"><g transform="translate(1.461427, 88.410486)"><g><path d="M 0 -9.203125 L 0 -36.78125 L 9.203125 -36.78125 L 9.203125 -46 L 36.78125 -46 L 36.78125 -36.78125 L 46 -36.78125 L 46 -9.203125 L 36.78125 -9.203125 L 36.78125 0 L 9.203125 0 L 9.203125 -9.203125 Z M 36.6875 -9.203125 L 36.6875 -36.78125 L 9.296875 -36.78125 L 9.296875 -9.203125 Z M 36.6875 -9.203125 "/></g></g></g><g fill="#ff0000" fill-opacity="1"><g transform="translate(75.422529, 88.410486)"><g><path d="M 36.78125 -27.625 L 36.78125 -18.421875 L 9.203125 -18.421875 L 9.203125 0 L 0 0 L 0 -46 L 36.78125 -46 L 36.78125 -36.78125 L 46 -36.78125 L 46 -27.625 Z M 36.6875 -27.625 L 36.6875 -36.78125 L 9.203125 -36.78125 L 9.203125 -27.625 Z M 36.6875 -27.625 "/></g></g></g><g fill="#ff0000" fill-opacity="1"><g transform="translate(149.383631, 88.410486)"><g><path d="M 0 0 L 0 -46 L 36.78125 -46 L 36.78125 -36.78125 L 9.203125 -36.78125 L 9.203125 -27.625 L 36.78125 -27.625 L 36.78125 -18.421875 L 9.203125 -18.421875 L 9.203125 -9.203125 L 36.78125 -9.203125 L 36.78125 0 Z M 0 0 "/></g></g></g><g fill="#ff0000" fill-opacity="1"><g transform="translate(214.137927, 88.410486)"><g><path d="M 36.78125 0 L 36.78125 -9.203125 L 27.625 -9.203125 L 27.625 -18.421875 L 18.421875 -18.421875 L 18.421875 -27.625 L 9.203125 -27.625 L 9.203125 0 L 0 0 L 0 -46 L 9.203125 -46 L 9.203125 -36.78125 L 18.421875 -36.78125 L 18.421875 -27.625 L 27.625 -27.625 L 27.625 -18.421875 L 36.78125 -18.421875 L 36.78125 -46 L 46 -46 L 46 0 Z M 36.78125 0 "/></g></g></g><g fill="#ff0000" fill-opacity="1"><g transform="translate(288.099029, 88.410486)"><g/></g></g><g fill="#ff0000" fill-opacity="1"><g transform="translate(334.439712, 88.410486)"><g><path d="M 0 0 L 0 -46 L 9.125 -46 L 9.125 -9.203125 L 36.78125 -9.203125 L 36.78125 0 Z M 0 0 "/></g></g></g><g fill="#ff0000" fill-opacity="1"><g transform="translate(399.194008, 88.410486)"><g><path d="M 18.421875 0 L 18.421875 -27.578125 L 9.203125 -27.578125 L 9.203125 -36.78125 L 0 -36.78125 L 0 -46 L 9.203125 -46 L 9.203125 -36.78125 L 18.421875 -36.78125 L 18.421875 -27.578125 L 27.625 -27.578125 L 27.625 0 Z M 36.78125 -36.78125 L 36.78125 -46 L 46 -46 L 46 -36.78125 Z M 27.578125 -27.578125 L 27.578125 -36.78125 L 36.78125 -36.78125 L 36.78125 -27.578125 Z M 27.578125 -27.578125 "/></g></g></g><g fill="#ff0000" fill-opacity="1"><g transform="translate(473.15511, 88.410486)"><g><path d="M 9.203125 0 L 9.203125 -9.203125 L 0 -9.203125 L 0 -46 L 9.203125 -46 L 9.203125 -9.203125 L 36.78125 -9.203125 L 36.78125 0 Z M 36.78125 -9.203125 L 36.78125 -46 L 46 -46 L 46 -9.203125 Z M 36.78125 -9.203125 "/></g></g></g><g fill="#ff0000" fill-opacity="1"><g transform="translate(547.116212, 88.410486)"><g><path d="M 46 -18.421875 L 46 -9.203125 L 36.78125 -9.203125 L 36.78125 0 L 0 0 L 0 -46 L 36.78125 -46 L 36.78125 -36.78125 L 46 -36.78125 L 46 -27.625 L 36.78125 -27.625 L 36.78125 -18.421875 Z M 36.6875 -36.78125 L 9.203125 -36.78125 L 9.203125 -27.625 L 36.6875 -27.625 Z M 9.203125 -9.203125 L 36.6875 -9.203125 L 36.6875 -18.421875 L 9.203125 -18.421875 Z M 9.203125 -9.203125 "/></g></g></g><g fill="#ff0000" fill-opacity="1"><g transform="translate(621.077314, 88.410486)"><g><path d="M 0 -9.203125 L 0 -36.78125 L 9.203125 -36.78125 L 9.203125 -46 L 36.78125 -46 L 36.78125 -36.78125 L 46 -36.78125 L 46 -9.203125 L 36.78125 -9.203125 L 36.78125 0 L 9.203125 0 L 9.203125 -9.203125 Z M 36.6875 -9.203125 L 36.6875 -36.78125 L 9.296875 -36.78125 L 9.296875 -9.203125 Z M 36.6875 -9.203125 "/></g></g></g><g fill="#ff0000" fill-opacity="1"><g transform="translate(695.038416, 88.410486)"><g><path d="M 18.421875 -46 L 18.421875 -27.578125 L 27.578125 -27.578125 L 27.578125 -9.203125 L 36.78125 -9.203125 L 36.78125 0 L 27.578125 0 L 27.578125 -9.203125 L 18.421875 -9.203125 L 18.421875 -27.578125 L 9.203125 -27.578125 L 9.203125 0 L 0 0 L 0 -46 Z M 64.40625 -46 L 64.40625 0 L 55.203125 0 L 55.203125 -27.578125 L 46 -27.578125 L 46 -46 Z M 36.78125 -9.203125 L 36.78125 -27.625 L 46 -27.625 L 46 -9.203125 Z M 36.78125 -9.203125 "/></g></g></g><g fill="#ff0000" fill-opacity="1"><g transform="translate(787.368264, 88.410486)"><g><path d="M 18.421875 0 L 18.421875 -27.578125 L 9.203125 -27.578125 L 9.203125 -36.78125 L 0 -36.78125 L 0 -46 L 9.203125 -46 L 9.203125 -36.78125 L 18.421875 -36.78125 L 18.421875 -27.578125 L 27.625 -27.578125 L 27.625 0 Z M 36.78125 -36.78125 L 36.78125 -46 L 46 -46 L 46 -36.78125 Z M 27.578125 -27.578125 L 27.578125 -36.78125 L 36.78125 -36.78125 L 36.78125 -27.578125 Z M 27.578125 -27.578125 "/></g></g></g><g fill="#ff0000" fill-opacity="1"><g transform="translate(861.329322, 88.410486)"><g><path d="M 36.78125 -27.625 L 36.78125 -18.421875 L 46 -18.421875 L 46 0 L 36.78125 0 L 36.78125 -18.421875 L 9.203125 -18.421875 L 9.203125 0 L 0 0 L 0 -46 L 36.78125 -46 L 36.78125 -36.78125 L 46 -36.78125 L 46 -27.625 Z M 9.203125 -27.625 L 36.6875 -27.625 L 36.6875 -36.78125 L 9.203125 -36.78125 Z M 9.203125 -27.625 "/></g></g></g></g></g></svg>